<svg xmlns="http://www.w3.org/2000/svg" xmlns:xlink="http://www.w3.org/1999/xlink" width="720" zoomAndPan="magnify" viewBox="0 0 540 540.000001" height="720" preserveAspectRatio="xMidYMid meet" version="1.0"><defs><clipPath id="40d7608e6a"><path d="M 0.5 0 L 539.5 0 L 539.5 539 L 0.5 539 Z M 0.5 0 " clip-rule="nonzero"/></clipPath><clipPath id="3b02f0d0d9"><path d="M 334 116.285156 L 446 116.285156 L 446 370 L 334 370 Z M 334 116.285156 " clip-rule="nonzero"/></clipPath><clipPath id="acd4e61f65"><path d="M 321 116.285156 L 446 116.285156 L 446 166 L 321 166 Z M 321 116.285156 " clip-rule="nonzero"/></clipPath><clipPath id="9c48e91f00"><path d="M 164 382 L 258 382 L 258 467.382812 L 164 467.382812 Z M 164 382 " clip-rule="nonzero"/></clipPath><clipPath id="0b6bd25edd"><path d="M 210 382 L 258 382 L 258 467.382812 L 210 467.382812 Z M 210 382 " clip-rule="nonzero"/></clipPath><clipPath id="26a34ca81e"><path d="M 388 203 L 539.089844 203 L 539.089844 344 L 388 344 Z M 388 203 " clip-rule="nonzero"/></clipPath><clipPath id="1b98d0af72"><path d="M 409 241 L 539.089844 241 L 539.089844 344 L 409 344 Z M 409 241 " clip-rule="nonzero"/></clipPath><clipPath id="de5e23c711"><path d="M 424 173 L 539.089844 173 L 539.089844 336 L 424 336 Z M 424 173 " clip-rule="nonzero"/></clipPath><clipPath id="958e57b764"><path d="M 477 302.011719 L 539.089844 302.011719 L 539.089844 336 L 477 336 Z M 477 302.011719 " clip-rule="nonzero"/></clipPath><clipPath id="607b5e0f78"><path d="M 447 229.050781 L 539.089844 229.050781 L 539.089844 336 L 447 336 Z M 447 229.050781 " clip-rule="nonzero"/></clipPath></defs><g clip-path="url(#40d7608e6a)"><path fill="#ffffff" d="M 0.5 0 L 539.5 0 L 539.5 539 L 0.5 539 Z M 0.5 0 " fill-opacity="1" fill-rule="nonzero"/><path fill="#845ec2" d="M 0.5 0 L 539.5 0 L 539.5 539 L 0.5 539 Z M 0.5 0 " fill-opacity="1" fill-rule="nonzero"/></g><path fill="#007aa2" d="M 447.421875 386.203125 C 435.238281 386.203125 416.011719 382.503906 394.144531 375.71875 C 399.949219 372.589844 405.644531 368.792969 411.082031 364.191406 L 432.992188 376.179688 L 432.992188 362.511719 L 432.992188 376.089844 L 445.363281 369.070312 L 445.445312 369.109375 L 445.445312 363.984375 C 456.464844 371.210938 462.417969 377.628906 460.921875 381.773438 C 459.84375 384.773438 454.988281 386.203125 447.421875 386.203125 M 228.15625 379.539062 C 216.269531 379.503906 204.761719 379.269531 193.835938 378.859375 L 193.835938 356.511719 L 228.15625 356.511719 L 228.15625 379.539062 M 241.359375 379.496094 L 241.359375 356.511719 L 243.753906 356.511719 C 246.21875 360.101562 250.402344 364.035156 257.332031 367.953125 C 265.015625 372.308594 270.976562 373.765625 275.511719 373.765625 C 284.652344 373.765625 288.003906 367.851562 288.003906 367.851562 L 289.910156 364.484375 C 291.742188 367.695312 295.101562 369.519531 298.574219 369.519531 C 300.179688 369.519531 301.8125 369.128906 303.328125 368.304688 L 304.054688 367.914062 C 302.058594 370.414062 301.363281 373.773438 302.277344 376.90625 C 284.371094 378.359375 263.621094 379.28125 241.359375 379.496094 M 180.625 378.265625 C 131.691406 375.679688 97.199219 369.453125 97.199219 362.191406 C 97.199219 357.640625 110.726562 353.5 132.867188 350.40625 L 135.023438 356.511719 L 180.625 356.511719 L 180.625 378.265625 " fill-opacity="1" fill-rule="nonzero"/><g clip-path="url(#3b02f0d0d9)"><path fill="#ffffff" d="M 445.445312 369.109375 L 334.089844 310.058594 L 334.089844 116.34375 L 445.445312 158.335938 L 445.445312 369.109375 " fill-opacity="1" fill-rule="nonzero"/></g><path fill="#7b7979" d="M 432.992188 376.179688 L 321.640625 315.25 L 321.640625 123.414062 L 432.992188 165.402344 L 432.992188 376.179688 " fill-opacity="1" fill-rule="nonzero"/><path fill="#4f4c4c" d="M 432.992188 376.089844 L 445.445312 369.023438 L 445.445312 158.246094 L 432.992188 165.316406 L 432.992188 376.089844 " fill-opacity="1" fill-rule="nonzero"/><g clip-path="url(#acd4e61f65)"><path fill="#393536" d="M 432.992188 165.316406 L 321.640625 123.328125 L 334.097656 116.34375 L 445.445312 158.335938 L 432.992188 165.316406 " fill-opacity="1" fill-rule="nonzero"/></g><path fill="#c3e9f5" d="M 422.957031 351.574219 L 329.90625 300.660156 L 329.90625 140.359375 L 422.957031 175.441406 L 422.957031 351.574219 " fill-opacity="1" fill-rule="nonzero"/><path fill="#d3d2d2" d="M 332.300781 301.964844 L 329.90625 300.660156 L 329.90625 140.359375 L 332.273438 141.246094 L 332.300781 301.964844 " fill-opacity="1" fill-rule="nonzero"/><path fill="#4f4c4c" d="M 362.578125 334.476562 C 359.550781 331.429688 358.929688 327.128906 361.199219 324.871094 C 363.46875 322.617188 367.761719 323.253906 370.796875 326.304688 C 373.824219 329.355469 374.4375 333.65625 372.175781 335.910156 C 369.90625 338.164062 365.609375 337.523438 362.578125 334.476562 " fill-opacity="1" fill-rule="nonzero"/><path fill="#393536" d="M 442.578125 218.992188 L 438.242188 221.492188 L 438.242188 182.933594 L 442.578125 180.433594 L 442.578125 218.992188 " fill-opacity="1" fill-rule="nonzero"/><path fill="#7b7979" d="M 438.242188 221.492188 L 436.074219 220.738281 L 436.074219 182.175781 L 438.242188 182.933594 L 438.242188 221.492188 " fill-opacity="1" fill-rule="nonzero"/><path fill="#656263" d="M 438.242188 182.933594 L 436.074219 182.171875 L 440.410156 179.675781 L 442.578125 180.433594 L 438.242188 182.933594 " fill-opacity="1" fill-rule="nonzero"/><path fill="#393536" d="M 442.578125 259.472656 L 438.242188 261.972656 L 438.242188 223.410156 L 442.578125 220.910156 L 442.578125 259.472656 " fill-opacity="1" fill-rule="nonzero"/><path fill="#7b7979" d="M 438.242188 261.972656 L 436.074219 261.214844 L 436.074219 222.652344 L 438.242188 223.410156 L 438.242188 261.972656 " fill-opacity="1" fill-rule="nonzero"/><path fill="#656263" d="M 438.242188 223.410156 L 436.074219 222.652344 L 440.410156 220.152344 L 442.578125 220.910156 L 438.242188 223.410156 " fill-opacity="1" fill-rule="nonzero"/><path fill="#4f4c4c" d="M 427.507812 156.0625 C 427.171875 157.601562 424.863281 158.40625 422.347656 157.863281 C 419.839844 157.3125 418.070312 155.617188 418.410156 154.078125 C 418.746094 152.539062 421.054688 151.730469 423.5625 152.28125 C 426.078125 152.832031 427.839844 154.523438 427.507812 156.0625 " fill-opacity="1" fill-rule="nonzero"/><path fill="#a7a5a6" d="M 422.957031 351.574219 L 329.90625 300.660156 L 332.300781 300.3125 L 422.957031 349.109375 L 422.957031 351.574219 " fill-opacity="1" fill-rule="nonzero"/><path fill="#e48b20" d="M 319.398438 177.160156 L 303.253906 198.410156 L 186.003906 198.410156 L 135.664062 356.511719 L 333.203125 356.511719 L 383.546875 198.410156 L 383.546875 177.160156 L 319.398438 177.160156 " fill-opacity="1" fill-rule="nonzero"/><path fill="#d3d2d2" d="M 315.003906 341.34375 L 146.089844 341.34375 L 206.773438 210.882812 L 375.683594 210.882812 L 315.003906 341.34375 " fill-opacity="1" fill-rule="nonzero"/><path fill="#f4f4f4" d="M 304.574219 338.359375 L 135.664062 338.359375 L 196.347656 207.898438 L 365.257812 207.898438 L 304.574219 338.359375 " fill-opacity="1" fill-rule="nonzero"/><path fill="#e9e9e9" d="M 316.847656 351.089844 L 135.664062 351.089844 L 196.347656 220.625 L 365.257812 220.625 L 316.847656 351.089844 " fill-opacity="1" fill-rule="nonzero"/><path fill="#f4f4f4" d="M 226.359375 252.3125 L 111.996094 284.414062 L 73 145.40625 L 161.445312 120.582031 L 194.417969 138.421875 L 226.359375 252.3125 " fill-opacity="1" fill-rule="nonzero"/><path fill="#d3d2d2" d="M 185.199219 153.175781 L 91.535156 179.472656 L 90.015625 174.046875 L 183.679688 147.757812 L 185.199219 153.175781 " fill-opacity="1" fill-rule="nonzero"/><path fill="#d3d2d2" d="M 188.457031 164.792969 L 94.792969 191.085938 L 93.273438 185.667969 L 186.933594 159.371094 L 188.457031 164.792969 " fill-opacity="1" fill-rule="nonzero"/><path fill="#d3d2d2" d="M 191.386719 175.246094 L 97.726562 201.542969 L 96.203125 196.117188 L 189.867188 169.828125 L 191.386719 175.246094 " fill-opacity="1" fill-rule="nonzero"/><path fill="#d3d2d2" d="M 194.589844 186.671875 L 100.929688 212.960938 L 99.40625 207.542969 L 193.070312 181.253906 L 194.589844 186.671875 " fill-opacity="1" fill-rule="nonzero"/><path fill="#d3d2d2" d="M 197.738281 197.898438 L 104.078125 224.191406 L 102.558594 218.773438 L 196.21875 192.476562 L 197.738281 197.898438 " fill-opacity="1" fill-rule="nonzero"/><path fill="#d3d2d2" d="M 200.996094 209.515625 L 107.335938 235.804688 L 105.8125 230.386719 L 199.476562 204.097656 L 200.996094 209.515625 " fill-opacity="1" fill-rule="nonzero"/><path fill="#d3d2d2" d="M 203.929688 219.964844 L 110.265625 246.261719 L 108.746094 240.839844 L 202.410156 214.546875 L 203.929688 219.964844 " fill-opacity="1" fill-rule="nonzero"/><path fill="#d3d2d2" d="M 207.132812 231.390625 L 113.46875 257.6875 L 111.949219 252.265625 L 205.613281 225.972656 L 207.132812 231.390625 " fill-opacity="1" fill-rule="nonzero"/><path fill="#e9e9e9" d="M 161.445312 120.582031 L 166.746094 146.191406 L 194.417969 138.421875 Z M 161.445312 120.582031 " fill-opacity="1" fill-rule="nonzero"/><path fill="#e9e9e9" d="M 274.382812 313.046875 L 156.339844 299.761719 L 172.472656 156.292969 L 263.75 166.566406 L 287.601562 195.507812 L 274.382812 313.046875 " fill-opacity="1" fill-rule="nonzero"/><path fill="#d3d2d2" d="M 273.511719 205.707031 L 176.835938 194.828125 L 177.46875 189.230469 L 274.136719 200.113281 L 273.511719 205.707031 " fill-opacity="1" fill-rule="nonzero"/><path fill="#d3d2d2" d="M 272.160156 217.695312 L 175.488281 206.816406 L 176.117188 201.21875 L 272.792969 212.101562 L 272.160156 217.695312 " fill-opacity="1" fill-rule="nonzero"/><path fill="#d3d2d2" d="M 270.949219 228.488281 L 174.273438 217.605469 L 174.90625 212.007812 L 271.578125 222.890625 L 270.949219 228.488281 " fill-opacity="1" fill-rule="nonzero"/><path fill="#d3d2d2" d="M 269.621094 240.277344 L 172.949219 229.394531 L 173.578125 223.796875 L 270.246094 234.679688 L 269.621094 240.277344 " fill-opacity="1" fill-rule="nonzero"/><path fill="#d3d2d2" d="M 268.320312 251.859375 L 171.644531 240.980469 L 172.273438 235.386719 L 268.949219 246.265625 L 268.320312 251.859375 " fill-opacity="1" fill-rule="nonzero"/><path fill="#d3d2d2" d="M 266.96875 263.851562 L 170.300781 252.972656 L 170.925781 247.375 L 267.597656 258.257812 L 266.96875 263.851562 " fill-opacity="1" fill-rule="nonzero"/><path fill="#d3d2d2" d="M 265.753906 274.640625 L 169.085938 263.761719 L 169.714844 258.167969 L 266.382812 269.046875 L 265.753906 274.640625 " fill-opacity="1" fill-rule="nonzero"/><path fill="#d3d2d2" d="M 264.429688 286.429688 L 167.757812 275.550781 L 168.386719 269.957031 L 265.058594 280.835938 L 264.429688 286.429688 " fill-opacity="1" fill-rule="nonzero"/><path fill="#d3d2d2" d="M 263.75 166.566406 L 259.039062 192.292969 L 287.601562 195.507812 Z M 263.75 166.566406 " fill-opacity="1" fill-rule="nonzero"/><path fill="#e5951f" d="M 332.566406 356.511719 L 135.023438 356.511719 L 84.6875 214.351562 L 282.226562 214.351562 L 332.566406 356.511719 " fill-opacity="1" fill-rule="nonzero"/><path fill="#d3d2d2" d="M 316.757812 301.144531 L 284.132812 282.636719 L 295.992188 261.699219 L 328.625 280.207031 L 316.757812 301.144531 " fill-opacity="1" fill-rule="nonzero"/><path fill="#801717" d="M 318.457031 307.117188 L 278.132812 284.242188 L 280.328125 280.367188 L 320.65625 303.234375 L 318.457031 307.117188 " fill-opacity="1" fill-rule="nonzero"/><path fill="#bdbcbc" d="M 301.597656 282.035156 L 293.21875 277.28125 L 297.726562 269.324219 L 306.109375 274.082031 L 301.597656 282.035156 " fill-opacity="1" fill-rule="nonzero"/><path fill="#bdbcbc" d="M 316.683594 290.589844 L 308.300781 285.835938 L 312.808594 277.882812 L 321.191406 282.636719 L 316.683594 290.589844 " fill-opacity="1" fill-rule="nonzero"/><path fill="#bf1b2c" d="M 288.003906 367.851562 C 288.003906 367.851562 280.503906 381.089844 257.332031 367.953125 C 234.15625 354.84375 241.679688 341.574219 241.679688 341.574219 L 276.234375 280.601562 L 322.5625 306.878906 L 288.003906 367.851562 " fill-opacity="1" fill-rule="nonzero"/><path fill="#f4f4f4" d="M 280.277344 360.484375 L 251.960938 344.425781 L 280.113281 294.742188 L 308.4375 310.800781 L 280.277344 360.484375 " fill-opacity="1" fill-rule="nonzero"/><path fill="#444142" d="M 217.414062 264.652344 L 224.832031 262.835938 L 223.042969 255.515625 C 219.125 239.492188 202.960938 229.675781 186.941406 233.597656 C 170.925781 237.515625 161.113281 253.6875 165.039062 269.710938 L 170.054688 290.25 L 177.472656 288.4375 L 172.875 269.621094 C 169.570312 256.109375 176.558594 242.796875 188.480469 239.882812 C 200.402344 236.964844 212.746094 245.550781 216.046875 259.054688 L 217.414062 264.652344 " fill-opacity="1" fill-rule="nonzero"/><path fill="#4f4c4c" d="M 242.558594 296.414062 C 247.691406 317.402344 234.84375 338.574219 213.867188 343.710938 C 192.886719 348.84375 171.71875 335.996094 166.589844 315.003906 C 161.457031 294.019531 174.304688 272.839844 195.285156 267.710938 C 216.261719 262.574219 237.429688 275.425781 242.558594 296.414062 " fill-opacity="1" fill-rule="nonzero"/><path fill="#656263" d="M 239.378906 297.191406 C 244.082031 316.425781 232.3125 335.824219 213.085938 340.53125 C 193.863281 345.234375 174.472656 333.457031 169.769531 314.226562 C 165.066406 294.996094 176.835938 275.589844 196.0625 270.890625 C 215.285156 266.1875 234.679688 277.960938 239.378906 297.191406 " fill-opacity="1" fill-rule="nonzero"/><path fill="#4f4c4c" d="M 226.695312 300.296875 C 229.683594 312.519531 222.203125 324.851562 209.988281 327.839844 C 197.769531 330.832031 185.445312 323.34375 182.453125 311.121094 C 179.464844 298.902344 186.949219 286.570312 199.164062 283.582031 C 211.382812 280.589844 223.707031 288.074219 226.695312 300.296875 " fill-opacity="1" fill-rule="nonzero"/><path fill="#393536" d="M 219.042969 323.304688 L 216.199219 319.914062 L 216.554688 319.617188 L 219.398438 323.003906 L 219.042969 323.304688 " fill-opacity="1" fill-rule="nonzero"/><path fill="#393536" d="M 192.59375 291.800781 L 189.746094 288.414062 L 190.105469 288.109375 L 192.949219 291.5 L 192.59375 291.800781 " fill-opacity="1" fill-rule="nonzero"/><path fill="#393536" d="M 209.375 283.4375 L 208.484375 287.769531 L 208.023438 287.675781 L 208.914062 283.339844 L 209.375 283.4375 " fill-opacity="1" fill-rule="nonzero"/><path fill="#393536" d="M 201.125 323.742188 L 200.238281 328.074219 L 199.777344 327.980469 L 200.667969 323.644531 L 201.125 323.742188 " fill-opacity="1" fill-rule="nonzero"/><path fill="#393536" d="M 227.132812 308.878906 L 222.742188 308.308594 L 222.804688 307.851562 L 227.191406 308.421875 L 227.132812 308.878906 " fill-opacity="1" fill-rule="nonzero"/><path fill="#393536" d="M 186.347656 303.570312 L 181.960938 303 L 182.019531 302.535156 L 186.40625 303.105469 L 186.347656 303.570312 " fill-opacity="1" fill-rule="nonzero"/><path fill="#393536" d="M 220.914062 300.984375 C 223.144531 310.105469 217.558594 319.308594 208.445312 321.539062 C 199.328125 323.769531 190.132812 318.183594 187.902344 309.066406 C 185.671875 299.945312 191.257812 290.746094 200.371094 288.515625 C 209.488281 286.285156 218.683594 291.867188 220.914062 300.984375 " fill-opacity="1" fill-rule="nonzero"/><path fill="#4f4c4c" d="M 220.914062 300.984375 L 220.828125 301.011719 C 221.160156 302.359375 221.320312 303.710938 221.320312 305.039062 C 221.320312 312.652344 216.144531 319.566406 208.425781 321.457031 C 207.074219 321.785156 205.726562 321.941406 204.394531 321.941406 C 196.785156 321.941406 189.875 316.765625 187.988281 309.046875 C 187.65625 307.695312 187.496094 306.34375 187.496094 305.015625 C 187.496094 297.402344 192.671875 290.484375 200.390625 288.601562 C 201.742188 288.269531 203.089844 288.109375 204.421875 288.109375 C 212.027344 288.109375 218.9375 293.285156 220.828125 301.011719 L 220.914062 300.984375 L 221 300.964844 C 219.089844 293.164062 212.105469 287.9375 204.421875 287.9375 C 203.074219 287.9375 201.710938 288.097656 200.351562 288.429688 C 192.550781 290.335938 187.324219 297.320312 187.324219 305.015625 C 187.324219 306.355469 187.484375 307.726562 187.816406 309.085938 C 189.726562 316.890625 196.707031 322.121094 204.394531 322.121094 C 205.738281 322.121094 207.105469 321.960938 208.464844 321.625 C 216.265625 319.714844 221.492188 312.730469 221.492188 305.039062 C 221.492188 303.695312 221.332031 302.332031 221 300.964844 L 220.914062 300.984375 " fill-opacity="1" fill-rule="nonzero"/><path fill="#4f4c4c" d="M 219.300781 301.386719 C 221.308594 309.609375 216.277344 317.910156 208.050781 319.921875 C 199.828125 321.933594 191.53125 316.902344 189.515625 308.671875 C 187.507812 300.445312 192.546875 292.144531 200.765625 290.128906 C 208.988281 288.117188 217.285156 293.15625 219.300781 301.386719 " fill-opacity="1" fill-rule="nonzero"/><path fill="#4f4c4c" d="M 219.300781 301.386719 L 219.21875 301.402344 C 219.519531 302.621094 219.660156 303.839844 219.660156 305.039062 C 219.660156 311.90625 214.996094 318.140625 208.027344 319.84375 C 206.816406 320.144531 205.59375 320.285156 204.394531 320.285156 C 197.535156 320.285156 191.296875 315.621094 189.597656 308.652344 C 189.296875 307.429688 189.15625 306.214844 189.15625 305.015625 C 189.15625 298.152344 193.820312 291.910156 200.78125 290.207031 C 202 289.910156 203.222656 289.765625 204.421875 289.765625 C 211.28125 289.765625 217.515625 294.4375 219.21875 301.402344 L 219.300781 301.386719 L 219.375 301.367188 C 217.65625 294.324219 211.359375 289.609375 204.421875 289.609375 C 203.210938 289.609375 201.976562 289.75 200.746094 290.054688 C 193.710938 291.777344 188.996094 298.074219 188.996094 305.015625 C 188.996094 306.226562 189.140625 307.460938 189.441406 308.691406 C 191.160156 315.730469 197.464844 320.445312 204.394531 320.445312 C 205.609375 320.445312 206.839844 320.300781 208.070312 320 C 215.105469 318.277344 219.820312 311.976562 219.820312 305.039062 C 219.820312 303.824219 219.675781 302.59375 219.375 301.367188 L 219.300781 301.386719 " fill-opacity="1" fill-rule="nonzero"/><path fill="#656263" d="M 202.304688 291.425781 C 199.765625 292.046875 197.574219 293.351562 195.875 295.09375 C 197.0625 294.34375 198.394531 293.769531 199.832031 293.421875 C 207.0625 291.652344 214.355469 296.082031 216.125 303.316406 C 217.273438 308.003906 215.8125 312.726562 212.671875 315.945312 C 217.460938 312.941406 220.019531 307.109375 218.605469 301.320312 C 216.835938 294.085938 209.539062 289.65625 202.304688 291.425781 " fill-opacity="1" fill-rule="nonzero"/><path fill="#4f4c4c" d="M 202.304688 291.425781 L 202.292969 291.355469 C 199.738281 291.980469 197.535156 293.289062 195.824219 295.046875 L 195.414062 295.464844 L 195.910156 295.15625 C 197.09375 294.410156 198.417969 293.835938 199.847656 293.484375 C 200.917969 293.226562 201.992188 293.101562 203.046875 293.101562 C 209.078125 293.101562 214.5625 297.207031 216.0625 303.332031 C 216.320312 304.402344 216.445312 305.46875 216.445312 306.527344 C 216.445312 310.070312 215.03125 313.425781 212.621094 315.894531 L 212.210938 316.316406 L 212.707031 316.003906 C 216.625 313.546875 219.058594 309.199219 219.058594 304.53125 C 219.058594 303.464844 218.933594 302.378906 218.667969 301.300781 C 217.15625 295.109375 211.617188 290.964844 205.519531 290.964844 C 204.457031 290.964844 203.371094 291.089844 202.292969 291.355469 L 202.304688 291.425781 L 202.320312 291.492188 C 203.390625 291.226562 204.464844 291.101562 205.519531 291.101562 C 211.550781 291.105469 217.035156 295.207031 218.535156 301.335938 C 218.792969 302.40625 218.917969 303.476562 218.917969 304.53125 C 218.917969 309.152344 216.511719 313.449219 212.632812 315.886719 L 212.671875 315.945312 L 212.722656 315.996094 C 215.15625 313.5 216.585938 310.109375 216.585938 306.527344 C 216.585938 305.460938 216.460938 304.375 216.195312 303.296875 C 214.679688 297.105469 209.144531 292.960938 203.046875 292.960938 C 201.980469 292.960938 200.898438 293.085938 199.816406 293.351562 C 198.367188 293.707031 197.035156 294.285156 195.835938 295.035156 L 195.875 295.09375 L 195.925781 295.144531 C 197.613281 293.40625 199.796875 292.109375 202.320312 291.492188 L 202.304688 291.425781 " fill-opacity="1" fill-rule="nonzero"/><path fill="#393536" d="M 224.648438 316.480469 L 220.730469 314.425781 L 220.945312 314.011719 L 224.863281 316.066406 L 224.648438 316.480469 " fill-opacity="1" fill-rule="nonzero"/><path fill="#393536" d="M 188.207031 297.40625 L 184.289062 295.355469 L 184.503906 294.941406 L 188.421875 296.992188 L 188.207031 297.40625 " fill-opacity="1" fill-rule="nonzero"/><path fill="#393536" d="M 216.761719 286.460938 L 214.4375 290.222656 L 214.035156 289.976562 L 216.367188 286.214844 L 216.761719 286.460938 " fill-opacity="1" fill-rule="nonzero"/><path fill="#393536" d="M 195.113281 321.441406 L 192.785156 325.207031 L 192.386719 324.957031 L 194.714844 321.195312 L 195.113281 321.441406 " fill-opacity="1" fill-rule="nonzero"/><path fill="#393536" d="M 199.472656 283.503906 L 200.507812 287.804688 L 200.050781 287.914062 L 199.019531 283.617188 L 199.472656 283.503906 " fill-opacity="1" fill-rule="nonzero"/><path fill="#393536" d="M 209.097656 323.5 L 210.132812 327.804688 L 209.679688 327.914062 L 208.644531 323.609375 L 209.097656 323.5 " fill-opacity="1" fill-rule="nonzero"/><path fill="#393536" d="M 226.75 300.527344 L 222.457031 301.574219 L 222.34375 301.121094 L 226.640625 300.070312 L 226.75 300.527344 " fill-opacity="1" fill-rule="nonzero"/><path fill="#393536" d="M 186.808594 310.300781 L 182.511719 311.351562 L 182.398438 310.894531 L 186.691406 309.84375 L 186.808594 310.300781 " fill-opacity="1" fill-rule="nonzero"/><path fill="#393536" d="M 222.699219 291.910156 L 219.210938 294.625 L 218.917969 294.253906 L 222.414062 291.539062 L 222.699219 291.910156 " fill-opacity="1" fill-rule="nonzero"/><path fill="#393536" d="M 190.230469 317.160156 L 186.738281 319.875 L 186.449219 319.503906 L 189.941406 316.789062 L 190.230469 317.160156 " fill-opacity="1" fill-rule="nonzero"/><path fill="#dc9e71" d="M 315.042969 388.113281 C 315.042969 388.113281 390.078125 402.21875 429.40625 343.59375 L 403.03125 295.011719 L 335.054688 327.558594 L 315.042969 388.113281 " fill-opacity="1" fill-rule="nonzero"/><path fill="#f1b37f" d="M 323.753906 280.414062 C 327.054688 286.480469 326.46875 293.171875 322.476562 295.339844 L 221.71875 350.085938 C 214.769531 354.535156 202.042969 354.40625 198.746094 348.335938 C 195.464844 342.285156 200.933594 332.941406 209.792969 328.125 L 310.554688 273.382812 C 314.550781 271.210938 320.472656 274.359375 323.753906 280.414062 " fill-opacity="1" fill-rule="nonzero"/><path fill="#da9866" d="M 296.601562 280.960938 L 214.847656 325.375 C 213.136719 329.339844 211.746094 333.285156 210.816406 337.085938 C 210.816406 337.085938 230.988281 355.109375 250.714844 316.652344 C 250.714844 316.652344 272.671875 315.332031 281.742188 311.101562 C 281.742188 311.101562 286.480469 310.945312 289.996094 312.992188 L 308.527344 302.921875 C 312.519531 300.753906 313.101562 294.0625 309.804688 287.996094 C 306.523438 281.941406 300.59375 278.785156 296.601562 280.960938 " fill-opacity="1" fill-rule="nonzero"/><path fill="#1f2224" d="M 241.359375 401.515625 L 228.15625 401.515625 L 228.15625 346.90625 C 228.15625 343.945312 225.300781 341.546875 221.808594 341.546875 L 200.183594 341.546875 C 196.683594 341.546875 193.835938 343.945312 193.835938 346.90625 L 193.835938 401.515625 L 180.625 401.515625 L 180.625 346.90625 C 180.625 336.648438 189.398438 328.320312 200.183594 328.320312 L 221.808594 328.320312 C 232.59375 328.320312 241.359375 336.648438 241.359375 346.90625 L 241.359375 401.515625 " fill-opacity="1" fill-rule="nonzero"/><path fill="#181a1b" d="M 241.359375 382.238281 L 228.15625 382.238281 L 228.15625 346.90625 C 228.15625 346.800781 228.152344 346.695312 228.144531 346.59375 C 227.957031 343.78125 225.183594 341.546875 221.808594 341.546875 L 210.992188 341.546875 L 210.992188 337.761719 C 219.003906 336.355469 224.71875 333.269531 228.785156 329.539062 C 236.132812 332.214844 241.359375 338.988281 241.359375 346.90625 L 241.359375 382.238281 " fill-opacity="1" fill-rule="nonzero"/><g clip-path="url(#9c48e91f00)"><path fill="#f9a72b" d="M 257.144531 454.089844 C 257.144531 461.421875 251.136719 467.433594 243.792969 467.433594 L 178.1875 467.433594 C 170.851562 467.433594 164.84375 461.421875 164.84375 454.089844 L 164.84375 395.585938 C 164.84375 388.246094 170.851562 382.238281 178.1875 382.238281 L 243.792969 382.238281 C 251.136719 382.238281 257.144531 388.246094 257.144531 395.585938 L 257.144531 454.089844 " fill-opacity="1" fill-rule="nonzero"/></g><g clip-path="url(#0b6bd25edd)"><path fill="#da8026" d="M 243.792969 467.433594 L 210.992188 467.433594 L 210.992188 382.238281 L 243.792969 382.238281 C 251.136719 382.238281 257.144531 388.246094 257.144531 395.585938 L 257.144531 454.089844 C 257.144531 461.421875 251.136719 467.433594 243.792969 467.433594 " fill-opacity="1" fill-rule="nonzero"/></g><path fill="#ffffff" d="M 174.914062 452.339844 L 174.914062 400.8125 C 174.914062 399.515625 173.859375 398.460938 172.558594 398.460938 C 171.257812 398.460938 170.203125 399.515625 170.203125 400.8125 L 170.203125 452.339844 C 170.203125 453.644531 171.257812 454.695312 172.558594 454.695312 C 173.859375 454.695312 174.914062 453.644531 174.914062 452.339844 " fill-opacity="1" fill-rule="nonzero"/><path fill="#1f2224" d="M 222.722656 417.769531 C 222.722656 411.28125 217.484375 406.039062 210.996094 406.039062 C 204.53125 406.039062 199.269531 411.28125 199.269531 417.769531 C 199.269531 423.078125 202.800781 427.578125 207.675781 429.023438 L 207.675781 443.632812 L 214.335938 443.632812 L 214.335938 429.023438 C 219.183594 427.578125 222.722656 423.078125 222.722656 417.769531 " fill-opacity="1" fill-rule="nonzero"/><path fill="#f1b37f" d="M 349.085938 300.90625 C 351.722656 305.761719 349.933594 311.796875 345.082031 314.429688 L 290.253906 344.21875 C 285.402344 346.855469 279.367188 345.070312 276.730469 340.214844 L 272.972656 333.285156 C 270.34375 328.445312 272.132812 322.410156 276.984375 319.777344 L 331.8125 289.984375 C 336.664062 287.351562 342.695312 289.136719 345.324219 293.976562 L 349.085938 300.90625 " fill-opacity="1" fill-rule="nonzero"/><path fill="#da9866" d="M 345.082031 314.429688 C 349.933594 311.796875 351.722656 305.761719 349.085938 300.90625 L 345.324219 293.976562 C 342.695312 289.136719 336.664062 287.351562 331.8125 289.984375 L 291.8125 311.71875 C 291.8125 311.71875 302.679688 322.496094 319.523438 328.320312 L 345.082031 314.429688 " fill-opacity="1" fill-rule="nonzero"/><path fill="#dd9663" d="M 330.738281 321.761719 C 330.882812 321.570312 331.03125 321.34375 331.175781 321.089844 C 331.371094 321.128906 331.566406 321.171875 331.757812 321.207031 L 330.738281 321.761719 " fill-opacity="1" fill-rule="nonzero"/><path fill="#f1ccb0" d="M 331.238281 291.261719 L 343.363281 313.59375 C 343.363281 313.59375 351.511719 308.550781 343.78125 296.359375 C 343.78125 296.359375 340.941406 290.246094 331.238281 291.261719 " fill-opacity="1" fill-rule="nonzero"/><path fill="#f1b37f" d="M 362.160156 324.992188 C 364.789062 329.824219 363.007812 335.878906 358.15625 338.515625 L 303.328125 368.304688 C 298.476562 370.945312 292.4375 369.140625 289.808594 364.300781 L 286.046875 357.371094 C 283.421875 352.535156 285.207031 346.5 290.058594 343.863281 L 344.886719 314.074219 C 349.746094 311.433594 355.777344 313.226562 358.402344 318.058594 L 362.160156 324.992188 " fill-opacity="1" fill-rule="nonzero"/><path fill="#eca975" d="M 344.257812 345.175781 C 345.496094 343.003906 346.464844 338.523438 341.796875 330.683594 C 341.796875 330.683594 338.117188 322.558594 330.058594 322.558594 C 329.78125 322.558594 329.503906 322.570312 329.21875 322.585938 L 331.757812 321.207031 C 336.816406 322.230469 342.011719 322.664062 347.210938 322.664062 C 347.570312 322.664062 347.925781 322.664062 348.285156 322.660156 L 356.4375 337.679688 C 356.4375 337.679688 363.84375 333.085938 357.832031 322.101562 C 358.707031 322.003906 359.566406 321.910156 360.429688 321.800781 L 362.160156 324.992188 C 362.984375 326.5 363.375 328.128906 363.375 329.742188 C 363.375 331.992188 362.613281 334.191406 361.203125 335.964844 L 345.984375 344.234375 L 344.257812 345.175781 " fill-opacity="1" fill-rule="nonzero"/><path fill="#ffffff" d="M 344.304688 315.332031 L 356.4375 337.679688 C 356.4375 337.679688 364.582031 332.625 356.855469 320.449219 C 356.855469 320.449219 354.015625 314.332031 344.304688 315.332031 " fill-opacity="1" fill-rule="nonzero"/><path fill="#f1b37f" d="M 379.214844 346.519531 C 381.835938 351.34375 380.042969 357.40625 375.203125 360.03125 L 320.375 389.824219 C 317.546875 389.394531 309.480469 390.65625 306.867188 385.828125 L 303.09375 378.890625 C 300.46875 374.050781 302.25 368 307.097656 365.363281 L 361.929688 335.574219 C 366.761719 332.945312 372.820312 334.738281 375.449219 339.582031 L 379.214844 346.519531 " fill-opacity="1" fill-rule="nonzero"/><path fill="#de9b6b" d="M 359.636719 368.488281 C 359.636719 368.488281 359.640625 368.488281 359.644531 368.484375 L 368.761719 363.535156 L 359.636719 368.488281 M 361.199219 335.96875 C 361.199219 335.964844 361.203125 335.964844 361.203125 335.964844 L 361.675781 335.710938 C 361.722656 335.683594 361.769531 335.660156 361.820312 335.636719 L 361.199219 335.96875 " fill-opacity="1" fill-rule="nonzero"/><path fill="#e8a36d" d="M 345.984375 344.234375 L 361.203125 335.964844 C 361.203125 335.964844 361.199219 335.964844 361.199219 335.96875 L 345.992188 344.234375 C 345.984375 344.234375 345.984375 344.234375 345.984375 344.234375 " fill-opacity="1" fill-rule="nonzero"/><path fill="#eca975" d="M 359.644531 368.484375 C 359.894531 368.308594 365.582031 364.109375 358.59375 352.339844 C 358.59375 352.339844 354.890625 344.207031 346.804688 344.207031 C 346.539062 344.207031 346.265625 344.214844 345.984375 344.234375 L 361.199219 335.96875 L 361.820312 335.636719 C 363.285156 334.871094 364.859375 334.503906 366.40625 334.503906 C 369.945312 334.503906 373.371094 336.394531 375.179688 339.726562 L 378.945312 346.671875 C 381.566406 351.488281 379.785156 357.539062 374.953125 360.167969 L 368.761719 363.535156 L 359.644531 368.484375 " fill-opacity="1" fill-rule="nonzero"/><path fill="#ffffff" d="M 357.769531 339.210938 L 369.90625 361.558594 C 369.90625 361.558594 378.027344 356.511719 370.296875 344.320312 C 370.296875 344.320312 367.464844 338.214844 357.769531 339.210938 " fill-opacity="1" fill-rule="nonzero"/><path fill="#f1b37f" d="M 409.492188 306.914062 C 409.492188 306.914062 332.1875 346.054688 299.199219 300.9375 C 299.199219 300.9375 247.253906 309.058594 238.839844 305.75 C 238.839844 305.75 240.054688 337.246094 203.375 338.53125 L 217.601562 285.789062 C 217.601562 285.789062 222.691406 276.125 231.21875 274.945312 C 231.21875 274.945312 294.261719 263.980469 302.898438 259.597656 C 302.898438 259.597656 313.390625 251.386719 322.035156 256.136719 C 322.035156 256.136719 376.246094 259.582031 388.78125 268.765625 L 409.492188 306.914062 " fill-opacity="1" fill-rule="nonzero"/><path fill="#ffffff" d="M 204.605469 334 C 204.605469 334 220.4375 333.910156 222.882812 320.117188 L 208.304688 320.308594 L 204.605469 334 " fill-opacity="1" fill-rule="nonzero"/><g clip-path="url(#26a34ca81e)"><path fill="#f1b37f" d="M 539.089844 258.90625 L 508.851562 203.203125 L 388.644531 268.515625 L 429.449219 343.675781 L 539.089844 284.105469 L 539.089844 258.90625 " fill-opacity="1" fill-rule="nonzero"/></g><g clip-path="url(#1b98d0af72)"><path fill="#dc9e71" d="M 539.089844 258.902344 L 529.699219 241.605469 L 409.492188 306.914062 L 429.449219 343.675781 L 539.089844 284.105469 L 539.089844 258.902344 " fill-opacity="1" fill-rule="nonzero"/></g><path fill="#f6c8a2" d="M 391.988281 274.664062 L 388.644531 268.515625 L 411.378906 256.167969 L 414.71875 262.316406 L 391.988281 274.664062 " fill-opacity="1" fill-rule="nonzero"/><path fill="#fffaee" d="M 477.824219 333.066406 L 458.753906 343.429688 L 407.835938 249.640625 L 426.90625 239.277344 L 477.824219 333.066406 " fill-opacity="1" fill-rule="nonzero"/><g clip-path="url(#de5e23c711)"><path fill="#151f36" d="M 539.089844 173.960938 L 424.304688 236.328125 L 478.363281 335.914062 L 539.089844 302.925781 L 539.089844 173.960938 " fill-opacity="1" fill-rule="nonzero"/></g><g clip-path="url(#958e57b764)"><path fill="#007ea6" d="M 478.363281 335.914062 L 477.050781 333.484375 L 478.363281 335.914062 L 539.089844 302.925781 L 478.363281 335.914062 " fill-opacity="1" fill-rule="nonzero"/></g><path fill="#bdb9b0" d="M 477.050781 333.484375 L 447.417969 278.90625 L 477.050781 333.484375 " fill-opacity="1" fill-rule="nonzero"/><g clip-path="url(#607b5e0f78)"><path fill="#0f1627" d="M 478.363281 335.914062 L 477.050781 333.484375 L 447.417969 278.90625 L 539.089844 229.097656 L 539.089844 302.925781 L 478.363281 335.914062 " fill-opacity="1" fill-rule="nonzero"/></g></svg>