<svg style="object-fit:cover" id="my-svg" version="1" baseProfile="full" width="100%" height="100%" viewBox="0 0 1366 641" xmlns="http://www.w3.org/2000/svg"><rect width="1366" height="641" fill="#ffffff"/><defs><radialGradient id="radial-gradient" cx="0.5" cy="0.75" r="0"><stop offset="0%" stop-color="#4b445380"/><stop offset="100%" stop-color="#845ec280"/></radialGradient></defs><path transform="scale(1, 1)" d="M 0,641 V 0,320 L 371,398 L 679,413 L 995,440 L 1366,320 C 1366,320 1366,641 1366,641 Z" stroke="none" stroke-width="0" fill="url(#radial-gradient)" class="transition-all duration-300 ease-in-out delay-150" style="transform-origin: center center;"/><defs><radialGradient id="radial-gradient" cx="0.5" cy="0.75" r="0"><stop offset="0%" stop-color="#4b445390"/><stop offset="100%" stop-color="#845ec290"/></radialGradient></defs><path transform="scale(1, 1)" d="M 0,641 V 0,480 L 347,535 L 682,512 L 1014,471 L 1366,480 C 1366,480 1366,641 1366,641 Z" stroke="none" stroke-width="0" fill="url(#radial-gradient)" class="transition-all duration-300 ease-in-out delay-150" style="transform-origin: center center;"/><defs><radialGradient id="radial-gradient" cx="0.5" cy="0.75" r="0"><stop offset="0%" stop-color="#4b4453ff"/><stop offset="100%" stop-color="#845ec2ff"/></radialGradient></defs><path transform="scale(1, 1)" d="M 0,641 V 0,721 L 336,691 L 741,612 L 1032,682 L 1366,721 C 1366,721 1366,641 1366,641 Z" stroke="none" stroke-width="0" fill="url(#radial-gradient)" class="transition-all duration-300 ease-in-out delay-150" style="transform-origin: center center;"/></svg>